<?xml version="1.0" encoding="UTF-8"?>
<svg width="25px" height="25px" viewBox="0 0 25 25" version="1.1" xmlns="http://www.w3.org/2000/svg" xmlns:xlink="http://www.w3.org/1999/xlink">
    <!-- Generator: Sketch 59.1 (86144) - https://sketch.com -->
    <title>icons8-search</title>
    <desc>Created with Sketch.</desc>
    <g id="Welcome" stroke="none" stroke-width="1" fill="none" fill-rule="evenodd">
        <g id="New-Form-for-Patient---Initial-Patient" transform="translate(-332.000000, -227.000000)" fill="#000000" fill-rule="nonzero">
            <g id="Search-Bar" transform="translate(296.000000, 218.000000)">
                <g id="icons8-search" transform="translate(36.000000, 9.000000)">
                    <path d="M10.3118269,0 C4.62499431,0 0,4.625293 0,10.300293 C0,16.000293 4.62499431,20.6000978 10.3118269,20.6000978 C12.9151325,20.6000978 15.2910636,19.6249028 17.1108501,18.0249025 L17.6923681,18.6000978 L17.1612023,19.1499025 C16.8579046,19.4499025 16.8579046,19.9250978 17.1612023,20.2250978 L21.7106687,24.7749028 C21.8623175,24.9249028 22.0396355,25 22.241834,25 C22.4440325,25 22.6461324,24.9249028 22.7725065,24.7749028 L24.7944914,22.7500003 C25.0725143,22.4500003 25.0726129,21.9751953 24.7693151,21.7001953 L20.2198493,17.1499025 C20.0682004,16.9999025 19.890882,16.925293 19.6886835,16.925293 C19.486485,16.925293 19.2843851,16.9999025 19.158011,17.1499025 L18.6273388,17.7001955 L18.0458207,17.1000978 C19.6381338,15.2750978 20.6241477,12.900293 20.6241477,10.300293 C20.6241477,4.625293 15.9986595,0 10.3118269,0 Z M10.3118269,1.5249025 C15.1645908,1.5249025 19.107659,5.4751955 19.107659,10.3251955 C19.107659,15.1751955 15.1645908,19.1000978 10.3118269,19.1000978 C5.45906309,19.1000978 1.5164887,15.1751955 1.5164887,10.3251955 C1.5164887,5.4751955 5.45906309,1.5249025 10.3118269,1.5249025 Z M10.3370032,4.6499025 C7.93589606,4.6499025 5.78773447,6.175293 4.9789405,8.425293 C4.85256644,8.750293 5.02939129,9.15 5.38323866,9.25 C5.45906309,9.275 5.53498635,9.300293 5.61081079,9.300293 C5.88883371,9.300293 6.14158183,9.12509775 6.24268108,8.85009775 C6.84927656,7.12509775 8.51721673,5.9501955 10.3370032,5.9501955 C10.6908505,5.9501955 10.9945431,5.650293 10.9945431,5.300293 C10.9945431,4.950293 10.6908505,4.6499025 10.3370032,4.6499025 Z M5.53478895,10.8251955 C5.18094159,10.8251955 4.87774242,11.1000978 4.87774242,11.4750978 L4.87774242,11.5751955 C4.90301724,11.9251955 5.18133638,12.2250978 5.56045856,12.2250978 C5.91430592,12.2250978 6.21750509,11.9251955 6.21750509,11.5751955 L6.21750509,11.5 C6.21750509,11.125 5.93958073,10.8251955 5.56045856,10.8251955 L5.53478895,10.8251955 Z M19.7143531,18.75 L23.2019811,22.25 L22.241834,23.2001953 L18.7537128,19.7001953 L19.7143531,18.75 Z" id="Shape"></path>
                </g>
            </g>
        </g>
    </g>
</svg>