<?xml version="1.0" encoding="UTF-8" standalone="no"?>
<!DOCTYPE svg PUBLIC "-//W3C//DTD SVG 1.1//EN"
 "http://www.w3.org/Graphics/SVG/1.1/DTD/svg11.dtd">
<!-- Generated by graphviz version 2.43.0 (0)
 -->
<!-- Title: EHealth Pages: 1 -->
<svg width="225pt" height="269pt"
 viewBox="0.00 0.00 224.60 268.60" xmlns="http://www.w3.org/2000/svg" xmlns:xlink="http://www.w3.org/1999/xlink">
<g id="graph0" class="graph" transform="scale(1 1) rotate(0) translate(28.8 239.8)">
<title>EHealth</title>
<polygon fill="white" stroke="transparent" points="-28.8,28.8 -28.8,-239.8 195.8,-239.8 195.8,28.8 -28.8,28.8"/>
<text text-anchor="middle" x="83.5" y="-196.6" font-family="Arial BoldMT" font-size="13.00">ER Diagram</text>
<!-- m_ActiveRecord::InternalMetadata -->
<g id="node1" class="node">
<title>m_ActiveRecord::InternalMetadata</title>
<path fill="none" stroke="black" d="M13.5,-0.5C13.5,-0.5 153.5,-0.5 153.5,-0.5 159.5,-0.5 165.5,-6.5 165.5,-12.5 165.5,-12.5 165.5,-30.5 165.5,-30.5 165.5,-36.5 159.5,-42.5 153.5,-42.5 153.5,-42.5 13.5,-42.5 13.5,-42.5 7.5,-42.5 1.5,-36.5 1.5,-30.5 1.5,-30.5 1.5,-12.5 1.5,-12.5 1.5,-6.5 7.5,-0.5 13.5,-0.5"/>
<text text-anchor="start" x="6.46" y="-29.2" font-family="Arial BoldMT" font-size="11.00">ActiveRecord::InternalMetadata</text>
<polyline fill="none" stroke="black" points="1.5,-23.5 165.5,-23.5 "/>
<text text-anchor="start" x="18.5" y="-10" font-family="ArialMT" font-size="10.00">value </text>
<text text-anchor="start" x="45.18" y="-10" font-family="Arial ItalicMT" font-size="10.00" fill="#999999">string</text>
</g>
<!-- m_ActiveRecord::SchemaMigration -->
<g id="node2" class="node">
<title>m_ActiveRecord::SchemaMigration</title>
<path fill="none" stroke="black" d="M12,-72.5C12,-72.5 155,-72.5 155,-72.5 161,-72.5 167,-78.5 167,-84.5 167,-84.5 167,-96.5 167,-96.5 167,-102.5 161,-108.5 155,-108.5 155,-108.5 12,-108.5 12,-108.5 6,-108.5 0,-102.5 0,-96.5 0,-96.5 0,-84.5 0,-84.5 0,-78.5 6,-72.5 12,-72.5"/>
<text text-anchor="start" x="5.44" y="-86.7" font-family="Arial BoldMT" font-size="11.00">ActiveRecord::SchemaMigration</text>
</g>
<!-- m_primary::SchemaMigration -->
<g id="node3" class="node">
<title>m_primary::SchemaMigration</title>
<path fill="none" stroke="black" d="M23.5,-138.5C23.5,-138.5 143.5,-138.5 143.5,-138.5 149.5,-138.5 155.5,-144.5 155.5,-150.5 155.5,-150.5 155.5,-162.5 155.5,-162.5 155.5,-168.5 149.5,-174.5 143.5,-174.5 143.5,-174.5 23.5,-174.5 23.5,-174.5 17.5,-174.5 11.5,-168.5 11.5,-162.5 11.5,-162.5 11.5,-150.5 11.5,-150.5 11.5,-144.5 17.5,-138.5 23.5,-138.5"/>
<text text-anchor="start" x="17.31" y="-152.7" font-family="Arial BoldMT" font-size="11.00">primary::SchemaMigration</text>
</g>
</g>
</svg>
